<?xml version="1.0" encoding="UTF-8"?>
<svg id="Calque_2" data-name="Calque 2" xmlns="http://www.w3.org/2000/svg" viewBox="0 0 28.13 24.37">
  <defs>
    <style>
      .cls-1 {
        fill: #f7e636;
      }

      .cls-2 {
        fill: #eee8cb;
      }

      .cls-3 {
        fill: #f4f4f4;
      }

      .cls-4 {
        fill: #8d652e;
      }

      .cls-5 {
        fill: #dcc72f;
      }

      .cls-6 {
        fill: #6eaade;
      }
    </style>
  </defs>
  <g id="Calque_1-2" data-name="Calque 1">
    <g>
      <path class="cls-2" d="M20.9,16.96c-3.04,4.39-7.88,.56-4.84-3.83C21.59,7.82,21.45,.26,23.54,0c2.63-.32,4.58,7.5-2.64,16.95Z"/>
      <path class="cls-4" d="M1.62,16.28l-1.62,1.38c.4,.63,.85,1.23,1.35,1.78,.81-.65,1.71-1.51,2.31-2.33-.71-.21-1.39-.49-2.04-.83Z"/>
      <path class="cls-1" d="M15.1,6.62c-3.37-.86-5.57,1.51-5.57,1.51,3.18-1.7,7.9,2.17,7.21,3.4-2.4,4.31-7.14,6.79-12.04,5.84-.36-.07-.7-.16-1.04-.26-.6,.82-1.5,1.68-2.31,2.33,6.6,3.29,14.5,1.35,17.85-5.28,1.36-2.7-1.24-6.81-4.1-7.54Z"/>
      <path class="cls-5" d="M28.12,17.43s-.64-2.69-3.83-3.95c-3.11-1.23-5.09,.68-5.09,.68-2.53,4.53-7.5,7.13-12.65,6.14-1.54-.3-2.95-.9-4.21-1.73-.33,.31-.67,.61-1,.88,1.8,2.02,4.19,3.47,6.96,4.01,4.34,.84,8.57-.76,11.44-3.89,4.41-5.56,8.38-2.13,8.38-2.13Z"/>
      <path class="cls-3" d="M15.26,16.46c1.37-.86,2.07-2.31,1.56-3.23-.16-.29-.44-.49-.77-.6-.08,.12-.17,.24-.25,.35,.24,.1,.45,.25,.57,.47,.41,.75-.15,1.92-1.27,2.62-1.08,.68-2.28,.66-2.72-.03-.17,.1-.35,.2-.53,.29,0,0,0,.01,0,.02,.51,.92,2.03,.97,3.4,.11Z"/>
      <path class="cls-6" d="M12.37,16.04c.45,.69,1.64,.71,2.72,.03,1.11-.7,1.68-1.87,1.27-2.62-.12-.22-.32-.37-.57-.47-.95,1.25-2.11,2.29-3.42,3.06Z"/>
      <path class="cls-1" d="M28.12,17.43c.1,2.48-1.72,6.4-4.84,6.92-3.12,.52,3.95-9.29-.76-11.28,0,0,5.42,0,5.6,4.36Z"/>
      <path class="cls-5" d="M15.9,6.92c-6.96-2.86-9.32,5.92-5.84,4.88,1.26-.38,1.98-2.97,5.84-4.88Z"/>
    </g>
  </g>
</svg>