<?xml version="1.0" encoding="UTF-8"?>
<svg id="Calque_2" data-name="Calque 2" xmlns="http://www.w3.org/2000/svg" viewBox="0 0 28.13 28.12">
  <defs>
    <style>
      .cls-1 {
        fill: #f0ffaf;
      }

      .cls-2 {
        fill: #7f664e;
      }

      .cls-3 {
        fill: #92755a;
      }

      .cls-4 {
        fill: #bcd73d;
      }

      .cls-5 {
        fill: #cfe561;
      }

      .cls-6 {
        fill: #424548;
      }
    </style>
  </defs>
  <g id="Calque_1-2" data-name="Calque 1">
    <g>
      <path class="cls-3" d="M16.71,28.12C-5.57,28.12-5.57,0,16.71,0V28.12Z"/>
      <ellipse class="cls-2" cx="16.71" cy="14.06" rx="11.41" ry="14.06"/>
      <ellipse class="cls-4" cx="16.71" cy="14.06" rx="10.75" ry="13.25"/>
      <ellipse class="cls-5" cx="16.71" cy="14.06" rx="9.4" ry="11.58"/>
      <path class="cls-4" d="M24.1,16.54c-.15,.67-2.89-.01-3.16,.56-.28,.59,1.55,3.19,1.16,3.66-.39,.48-2.49-1.8-2.96-1.46-.47,.33,.06,3.71-.47,3.89-.52,.17-1.42-3.08-1.97-3.09-.54,0-1.45,3.25-1.99,3.07-.54-.18,0-3.56-.46-3.89-.48-.34-2.59,1.91-2.97,1.43-.39-.48,1.46-3.06,1.19-3.65-.27-.58-3.01,.07-3.15-.59-.14-.65,2.5-1.75,2.51-2.43,0-.66-2.64-1.79-2.49-2.45,.15-.67,2.89,0,3.16-.56,.28-.59-1.55-3.19-1.16-3.66,.39-.48,2.49,1.8,2.96,1.46,.47-.34-.06-3.71,.48-3.89,.52-.17,1.42,3.09,1.97,3.09,.54,0,1.45-3.25,1.99-3.07,.54,.18,0,3.56,.46,3.89,.48,.34,2.59-1.91,2.97-1.43,.39,.48-1.46,3.06-1.19,3.65,.27,.59,3.01-.07,3.15,.59,.14,.65-2.5,1.75-2.51,2.43,0,.66,2.64,1.79,2.49,2.45Z"/>
      <polygon class="cls-1" points="22.96 14.06 19.18 14.88 22.12 17.91 18.52 16.28 19.84 20.72 17.38 17.1 16.71 21.75 16.05 17.1 13.59 20.72 14.91 16.28 11.31 17.91 14.25 14.88 10.47 14.06 14.25 13.25 11.31 10.21 14.91 11.84 13.59 7.4 16.05 11.03 16.71 6.37 17.38 11.03 19.84 7.4 18.52 11.84 22.12 10.22 19.18 13.25 22.96 14.06"/>
      <polygon class="cls-6" points="15.42 7.21 15.22 8.34 15.83 9.23 16.03 8.1 15.42 7.21"/>
      <polygon class="cls-6" points="14.23 5.63 14.02 6.76 14.63 7.65 14.84 6.51 14.23 5.63"/>
      <polygon class="cls-6" points="18.47 6.96 17.67 7.58 17.59 8.74 18.39 8.12 18.47 6.96"/>
      <polygon class="cls-6" points="18 20.91 18.21 19.78 17.6 18.9 17.39 20.03 18 20.91"/>
      <polygon class="cls-6" points="19.2 22.5 19.4 21.36 18.79 20.48 18.59 21.61 19.2 22.5"/>
      <polygon class="cls-6" points="14.96 21.16 15.76 20.54 15.84 19.38 15.04 20 14.96 21.16"/>
      <polygon class="cls-6" points="22.27 12.47 21.35 12.22 20.64 12.97 21.56 13.22 22.27 12.47"/>
      <polygon class="cls-6" points="23.56 11 22.64 10.75 21.92 11.5 22.84 11.76 23.56 11"/>
      <polygon class="cls-6" points="22.47 16.22 21.97 15.24 21.03 15.14 21.53 16.13 22.47 16.22"/>
      <polygon class="cls-6" points="11.15 15.65 12.07 15.91 12.79 15.16 11.87 14.9 11.15 15.65"/>
      <polygon class="cls-6" points="9.87 17.12 10.79 17.38 11.51 16.63 10.59 16.37 9.87 17.12"/>
      <polygon class="cls-6" points="10.95 11.9 11.46 12.89 12.4 12.98 11.89 12 10.95 11.9"/>
      <polygon class="cls-6" points="21.17 9.67 20.25 9.93 19.87 10.99 20.79 10.73 21.17 9.67"/>
      <polygon class="cls-6" points="21.81 7.66 20.9 7.92 20.51 8.98 21.43 8.72 21.81 7.66"/>
      <polygon class="cls-6" points="11.61 20.47 12.53 20.21 12.92 19.15 12 19.4 11.61 20.47"/>
      <polygon class="cls-6" points="13.15 8.57 13.36 9.7 14.22 10.18 14.01 9.04 13.15 8.57"/>
      <polygon class="cls-6" points="11.52 7.78 11.73 8.91 12.59 9.38 12.38 8.25 11.52 7.78"/>
      <polygon class="cls-6" points="21.91 20.35 21.7 19.21 20.84 18.74 21.05 19.87 21.91 20.35"/>
    </g>
  </g>
</svg>